<svg width="43" height="32" viewBox="0 0 43 32" fill="none" xmlns="http://www.w3.org/2000/svg">
<mask id="mask0_176_563" style="mask-type:luminance" maskUnits="userSpaceOnUse" x="0" y="0" width="43" height="32">
<path d="M0.6875 0H42.3121V32H0.6875V0Z" fill="white"/>
</mask>
<g mask="url(#mask0_176_563)">
<path d="M10.9494 9.94764C15.5357 8.56882 16.1232 5.97054 20.3084 4.67085C21.7403 4.22642 26.3993 3.06224 30.527 5.69196C34.5193 8.23713 35.4299 12.6868 35.6065 13.6581C34.6125 13.6592 30.5357 13.7762 27.0659 16.9328C22.9446 20.6812 22.9295 25.7596 22.9403 26.5541H19.8282C19.8857 24.7666 20.2683 20.8036 22.9696 17.0379C23.8194 15.8542 25.5895 13.4489 28.8458 12.0419C29.9905 11.5465 31.0159 11.3059 31.753 11.179C31.4343 10.4896 30.7016 9.16609 29.2219 8.20895C27.3759 7.01332 25.4204 7.11847 24.1793 7.18025C23.6167 7.20844 22.5826 7.26697 21.349 7.71032C19.4803 8.3813 18.664 9.34061 17.3849 10.3162C13.9097 12.9708 9.90877 13.4153 8.33267 13.5909C6.58639 13.7849 5.13061 13.6971 4.16913 13.5909L4.4824 10.4745C6.03898 10.6544 8.36411 10.7248 10.9494 9.94764ZM4.21357 3.69636C4.07374 6.09086 6.00863 8.07995 8.25896 8.0561C10.3705 8.03334 12.1916 6.24478 12.2252 4.00096C12.184 1.78206 10.363 0.00434468 8.21994 8.78577e-06C6.18207 -0.00432711 4.40977 1.5967 4.21357 3.69636ZM15.733 24.4686C15.7362 28.5942 12.3412 31.9913 8.2156 31.9913C4.09 31.9913 0.696075 28.5942 0.698243 24.4686C0.719923 20.3603 4.10734 16.9913 8.2156 16.9913C12.3249 16.9913 15.7113 20.3603 15.733 24.4686ZM12.6924 24.8642C12.907 22.2735 10.7792 19.9787 8.2156 19.9744C5.90999 19.9701 3.89705 21.8204 3.73229 24.1737C3.56427 26.5812 5.38209 28.7774 7.83079 28.9855C10.3174 29.1979 12.4919 27.2793 12.6924 24.8642ZM42.2957 24.4686C42.2979 28.5942 38.904 31.9913 34.7784 31.9913C30.6528 31.9913 27.2578 28.5942 27.261 24.4686C27.2827 20.3603 30.669 16.9913 34.7784 16.9913C38.8877 16.9913 42.2741 20.3603 42.2957 24.4686ZM39.2704 24.4913C39.2747 22.0589 37.2477 19.9766 34.7784 19.9744C32.4533 19.9733 30.4826 21.8182 30.2983 24.1293C30.1043 26.5617 31.9503 28.7546 34.347 28.9822C36.9366 29.2272 39.266 27.0939 39.2704 24.4913Z" fill="white"/>
<path d="M10.9494 9.94764C15.5357 8.56882 16.1232 5.97054 20.3084 4.67085C21.7403 4.22642 26.3993 3.06224 30.527 5.69196C34.5193 8.23713 35.4299 12.6868 35.6065 13.6581C34.6125 13.6592 30.5357 13.7762 27.0659 16.9328C22.9446 20.6812 22.9295 25.7596 22.9403 26.5541H19.8282C19.8857 24.7666 20.2683 20.8036 22.9696 17.0379C23.8194 15.8542 25.5895 13.4489 28.8458 12.0419C29.9905 11.5465 31.0159 11.3059 31.753 11.179C31.4343 10.4896 30.7016 9.16609 29.2219 8.20895C27.3759 7.01332 25.4204 7.11847 24.1793 7.18025C23.6167 7.20844 22.5826 7.26697 21.349 7.71032C19.4803 8.3813 18.664 9.34061 17.3849 10.3162C13.9097 12.9708 9.90877 13.4153 8.33267 13.5909C6.58639 13.7849 5.13061 13.6971 4.16913 13.5909L4.4824 10.4745C6.03898 10.6544 8.36411 10.7248 10.9494 9.94764ZM4.21357 3.69636C4.07374 6.09086 6.00863 8.07995 8.25896 8.0561C10.3705 8.03334 12.1916 6.24478 12.2252 4.00096C12.184 1.78206 10.363 0.00434468 8.21994 8.78577e-06C6.18207 -0.00432711 4.40977 1.5967 4.21357 3.69636ZM15.733 24.4686C15.7362 28.5942 12.3412 31.9913 8.2156 31.9913C4.09 31.9913 0.696075 28.5942 0.698243 24.4686C0.719923 20.3603 4.10734 16.9913 8.2156 16.9913C12.3249 16.9913 15.7113 20.3603 15.733 24.4686ZM12.6924 24.8642C12.907 22.2735 10.7792 19.9787 8.2156 19.9744C5.90999 19.9701 3.89705 21.8204 3.73229 24.1737C3.56427 26.5812 5.38209 28.7774 7.83079 28.9855C10.3174 29.1979 12.4919 27.2793 12.6924 24.8642ZM42.2957 24.4686C42.2979 28.5942 38.904 31.9913 34.7784 31.9913C30.6528 31.9913 27.2578 28.5942 27.261 24.4686C27.2827 20.3603 30.669 16.9913 34.7784 16.9913C38.8877 16.9913 42.2741 20.3603 42.2957 24.4686ZM39.2704 24.4913C39.2747 22.0589 37.2477 19.9766 34.7784 19.9744C32.4533 19.9733 30.4826 21.8182 30.2983 24.1293C30.1043 26.5617 31.9503 28.7546 34.347 28.9822C36.9366 29.2272 39.266 27.0939 39.2704 24.4913Z" fill="white"/>
</g>
</svg>
